Coordinates
version=1
nRows=13
nColumns=40
inDegrees=yes

Units are S.I. units (second, meters, Newtons, ...)
Angles are in degrees.

endheader
time	pelvis_tilt	pelvis_list	pelvis_rotation	pelvis_tx	pelvis_ty	pelvis_tz	hip_flexion_r	hip_adduction_r	hip_rotation_r	knee_angle_r	knee_angle_r_beta	ankle_angle_r	subtalar_angle_r	mtp_angle_r	hip_flexion_l	hip_adduction_l	hip_rotation_l	knee_angle_l	knee_angle_l_beta	ankle_angle_l	subtalar_angle_l	mtp_angle_l	lumbar_extension	lumbar_bending	lumbar_rotation	arm_flex_r	arm_add_r	arm_rot_r	elbow_flex_r	pro_sup_r	wrist_flex_r	wrist_dev_r	arm_flex_l	arm_add_l	arm_rot_l	elbow_flex_l	pro_sup_l	wrist_flex_l	wrist_dev_l
      1.28000000	      3.00682590	     -0.57386633	     -1.14682035	     -0.03184852	      0.88559584	     -1.20016274	     24.23249810	     -0.82705735	    -20.70883448	    -19.86090186	     -0.34663813	     -2.22283636	      0.61394347	      3.84672527	    -14.02476932	     -3.14406249	     11.90913691	    -12.02519311	     -0.20987921	     10.88938024	     -8.55430127	     -4.88889754	    -10.00492895	      2.74433720	     -5.05323922	      0.06674432	     -9.26879628	     11.91864424	     13.21402780	     89.95437384	      0.00000000	      0.00000000	     19.00152474	     12.69240022	    -10.56444942	     34.09433779	     89.95437384	      0.00000000	      0.00000000
      1.29000000	      2.96697743	     -1.04017014	     -0.54792483	     -0.02228605	      0.88472448	     -1.19988485	     23.81747318	     -0.40176977	    -22.38309323	    -17.85178426	     -0.31157241	     -2.95423168	      2.57499233	      3.02543006	    -14.28768280	     -2.29170090	     11.68866030	    -12.75490266	     -0.22261505	     11.12136554	     -8.96662478	     -5.21572637	     -9.97482585	      3.31912410	     -5.49940266	     -0.07542768	     -9.20218984	     11.69993881	     12.96443020	     89.95437384	      0.00000000	      0.00000000	     19.04350309	     12.71129484	    -10.29960763	     34.72334176	     89.95437384	      0.00000000	      0.00000000
      1.30000000	      2.68221977	     -0.85677089	     -0.55627636	     -0.01304386	      0.88322871	     -1.19920606	     24.33294007	     -0.49904985	    -22.63320757	    -17.40401856	     -0.30375743	     -2.83427083	      2.63713995	      2.95109706	    -14.48242701	     -2.39217010	     11.56301267	    -13.03289480	     -0.22746693	     11.00157658	     -8.90402741	     -5.19223925	     -9.73579391	      3.11280488	     -5.19132278	     -0.38434092	     -9.16518597	     11.75193738	     12.80522854	     89.95437384	      0.00000000	      0.00000000	     19.28618070	     12.58351376	    -10.21238533	     35.13672843	     89.95437384	      0.00000000	      0.00000000
      1.31000000	      2.35195930	     -1.02223110	     -0.24355487	     -0.00336975	      0.88203373	     -1.19898209	     24.26551146	     -0.19405988	    -22.76544850	    -16.13022437	     -0.28152552	     -3.04102000	      3.99368336	      2.60779049	    -14.53870703	     -2.03728394	     11.06730738	    -13.51357819	     -0.23585643	     10.77852262	     -9.11820776	     -5.27944499	     -9.34890699	      3.37961435	     -5.49513761	     -0.35083847	     -9.11346895	     11.83234478	     12.32199059	     89.95437384	      0.00000000	      0.00000000	     19.16124474	     12.58312051	    -10.05753701	     35.54948116	     89.95437384	      0.00000000	      0.00000000
      1.32000000	      2.22231494	     -1.09258636	     -0.07411891	      0.00659706	      0.88104291	     -1.19840675	     24.23862419	     -0.07550265	    -22.88380004	    -15.88470882	     -0.27724047	     -3.05312475	      4.62056996	      2.32350058	    -14.82174713	     -1.78091266	     10.87855526	    -14.02858209	     -0.24484495	     10.67244822	     -9.14431199	     -5.33205321	     -9.19442412	      3.47875947	     -5.44711074	     -0.47170829	     -9.05781213	     11.89453248	     12.02540021	     89.95437384	      0.00000000	      0.00000000	     19.13341813	     12.43692225	     -9.76802455	     35.93226152	     89.95437384	      0.00000000	      0.00000000
      1.33000000	      2.35494113	     -1.30483095	      0.41835306	      0.01740987	      0.88042932	     -1.19841456	     23.90776049	     -0.23343420	    -24.07644939	    -16.30484860	     -0.28457329	     -3.37950220	      7.28736909	     -1.75883027	    -15.33710489	     -1.16061207	     11.21107717	    -14.67180323	     -0.25607127	      9.84764304	    -10.33602766	     -6.57323902	     -9.24121412	      3.79902711	     -5.80852561	     -0.61853064	     -9.04253524	     11.85656118	     11.85727193	     89.95437384	      0.00000000	      0.00000000	     18.81895415	     12.29548793	     -9.27413337	     36.49805102	     89.95437384	      0.00000000	      0.00000000
      1.34000000	      2.16368293	     -1.35797254	      0.60136606	      0.02795410	      0.87942524	     -1.19799850	     23.94637760	     -0.11755838	    -23.37202629	    -16.90583365	     -0.29506246	     -3.51652945	      7.02351255	     -1.81035206	    -15.56392769	     -0.96104356	     10.74674422	    -15.20048159	     -0.26529845	      9.59126082	    -10.08095400	     -6.49038208	     -8.94131490	      3.89319631	     -5.78973840	     -0.82550169	     -9.03630986	     11.94001191	     11.64373581	     89.95437384	      0.00000000	      0.00000000	     18.62278914	     12.15662227	     -9.20705782	     36.75922459	     89.95437384	      0.00000000	      0.00000000
      1.35000000	      2.04842756	     -1.43695539	      0.84816692	      0.03890885	      0.87857494	     -1.19758408	     23.81279601	      0.01701563	    -22.68076655	    -17.67655936	     -0.30851416	     -3.85855937	      6.44043624	     -1.82697340	    -15.88812389	     -0.69588905	     10.27056928	    -15.70258770	     -0.27406186	      9.27417174	     -9.84635827	     -6.41593795	     -8.66371706	      4.03086266	     -5.90100845	     -0.90990747	     -8.99477054	     12.08976465	     11.30351480	     89.95437384	      0.00000000	      0.00000000	     18.27381028	     12.03172097	     -9.05945531	     37.00859318	     89.95437384	      0.00000000	      0.00000000
      1.36000000	      2.04739446	     -1.69358124	      1.21217976	      0.05015845	      0.87819583	     -1.19718455	     23.37253181	      0.42090208	    -22.34920998	    -17.98543651	     -0.31390508	     -6.37506072	      3.83550697	     -1.56476875	    -16.25717721	     -0.18871411	      9.82494833	    -16.35791227	     -0.28549943	      8.55235364	     -9.52732332	     -6.46410419	     -8.52739995	      4.36903995	     -6.17277132	     -1.02310000	     -8.99975756	     12.38171413	     11.14302854	     89.95437384	      0.00000000	      0.00000000	     17.72328234	     11.90196446	     -8.61685201	     37.43537712	     89.95437384	      0.00000000	      0.00000000
      1.37000000	      1.94188473	     -2.33891801	      1.26184650	      0.06119589	      0.87804554	     -1.19601328	     22.98922386	      1.56872645	    -20.88338316	    -17.77176070	     -0.31017574	     -7.74339276	      1.40859348	     -1.93128906	    -16.37919902	      0.75917717	     10.06223456	    -17.24732677	     -0.30102264	      7.88325608	     -9.70692770	     -6.90088061	     -8.29996262	      5.09424864	     -6.03012329	     -1.06711255	     -9.04667256	     12.73719456	     10.86263358	     89.95437384	      0.00000000	      0.00000000	     17.30057195	     11.58361060	     -8.17658443	     37.43009299	     89.95437384	      0.00000000	      0.00000000
      1.38000000	      1.69488185	     -2.29865116	      1.26135836	      0.07246650	      0.87787960	     -1.19540368	     23.00749542	      1.54320665	    -20.46438503	    -18.34521771	     -0.32018445	     -7.75738363	      1.31558727	     -1.89311224	    -16.43001024	      0.79301401	      9.72496066	    -17.96508872	     -0.31354995	      7.48039219	     -9.30492048	     -6.73597868	     -7.90164279	      5.07842567	     -5.87576262	     -1.41652394	     -9.12315239	     12.70038984	     11.15325423	     89.95437384	      0.00000000	      0.00000000	     16.75674166	     11.41511909	     -8.16333690	     37.52330319	     89.95437384	      0.00000000	      0.00000000
      1.39000000	      1.51310595	     -3.13315508	      1.37697780	      0.08373497	      0.87824017	     -1.19441425	     22.96967225	      2.43294228	    -20.58065040	    -19.11047920	     -0.33354078	     -7.63265448	      0.42051882	     -1.93712578	    -16.28183154	      1.88905789	      9.64715067	    -19.11780068	     -0.33366857	      6.16763735	     -8.40845844	     -6.47149128	     -7.50020529	      6.04808380	     -5.82950892	     -1.13085128	     -9.07634362	     13.08269471	     10.22199451	     89.95437384	      0.00000000	      0.00000000	     16.36960463	     11.09218331	     -8.12716894	     36.94441230	     89.95437384	      0.00000000	      0.00000000
      1.40000000	      1.32937028	     -3.47625738	      1.30605210	      0.09477345	      0.87892184	     -1.19347732	     22.84274858	      2.94231699	    -19.98535831	    -19.89967519	     -0.34731485	     -7.33145365	      0.18876469	     -1.96758270	    -16.05693239	      2.32420394	      9.19520171	    -20.37815195	     -0.35566585	      5.16521679	     -7.79273655	     -6.22628536	     -7.23359868	      6.44654076	     -5.58492963	     -1.17130122	     -9.14549937	     13.18472308	     10.28223693	     89.95437384	      0.00000000	      0.00000000	     15.80079889	     10.84169654	     -8.02170210	     36.83273647	     89.95437384	      0.00000000	      0.00000000
